<svg width="1000" height="800" viewBox="0 0 1000 800" fill="none" xmlns="http://www.w3.org/2000/svg">
<rect width="1000" height="800" fill="white"/>
<circle cx="299" cy="160" r="95" fill="#E3F0FF"/>
<rect x="114" y="211" width="706" height="511" fill="#E3F0FF"/>
<rect x="90" y="169" width="77" height="539" fill="#E3F0FF"/>
<rect x="871.109" y="261.293" width="64.0086" height="361.313" transform="rotate(37.8699 871.109 261.293)" fill="#E3F0FF"/>
<path d="M926.466 301.309C924.998 288.638 918.663 277.335 908.694 269.466C888.054 253.16 857.978 256.662 841.672 277.302L838.772 280.969V233.721C838.772 211.48 825.567 198.743 802.594 198.743H402.7C406.001 188.54 408.001 176.336 408.001 161.431C408.001 133.856 396.765 107.815 376.358 88.1423C356.185 68.7033 329.744 58 301.935 58H301.735C273.86 58 247.418 68.7033 227.245 88.1423C206.839 107.815 195.602 133.823 195.602 161.431C195.602 176.369 197.636 188.54 200.903 198.743H178.029V176.536C178.029 159.697 168.193 149.228 152.388 149.228H123.98C104.34 149.228 73.1973 162.999 73.1973 199.91V670.157C73.1973 707.069 103.306 737.078 140.285 737.078H800.723C814.928 737.078 838.768 732.143 838.768 699.1V434.45L916.525 336.388C924.428 326.452 927.965 313.98 926.466 301.309ZM802.591 218.75C816.129 218.75 818.763 224.252 818.763 233.721V306.211L667.386 497.135L667.352 497.202C667.119 497.502 666.919 497.802 666.719 498.102C666.652 498.202 666.619 498.302 666.552 498.369C666.419 498.602 666.285 498.869 666.152 499.136C666.085 499.236 666.052 499.369 665.985 499.469C665.852 499.769 665.752 500.036 665.652 500.336C665.618 500.403 665.585 500.503 665.585 500.569C665.485 500.936 665.385 501.336 665.318 501.703C665.318 501.736 665.318 501.77 665.285 501.803L654.548 569.19H378.332C347.256 569.19 311.845 524.777 311.845 485.831V339.217H323.449H323.649C338.387 339.217 350.791 326.947 351.357 311.708V311.342V277.198C351.357 263.86 358.293 256.624 370.497 244.988C378.066 237.786 386.435 229.784 393.371 218.78L802.591 218.75ZM682.388 521.812L714.698 547.287L675.786 563.225L682.388 521.812ZM272.259 287.174H331.378V311.082C331.144 315.583 327.71 319.185 323.675 319.185H323.509H280.195C275.827 319.185 272.259 315.65 272.259 311.316L272.259 287.174ZM299.634 267.168L291.998 204.515H311.671L304.002 267.168H299.634ZM241.149 102.551C257.587 86.7128 279.094 78.0104 301.768 78.0104H301.935C324.575 78.0104 346.082 86.7128 362.521 102.551C378.992 118.423 388.029 139.33 388.029 161.436C388.029 180.208 384.394 193.446 378.926 203.749C378.826 203.916 378.726 204.082 378.659 204.249C372.691 215.253 364.655 222.922 356.752 230.457C346.249 240.427 335.479 250.73 332.311 267.169H324.175L331.845 204.516H344.315C349.85 204.516 354.318 200.048 354.318 194.513C354.318 188.978 349.85 184.51 344.315 184.51H334.311L336.479 166.904C337.146 161.436 333.244 156.434 327.776 155.767C322.275 155.1 317.306 159.002 316.639 164.47L314.205 184.51H289.664L287.23 164.47C286.563 159.001 281.595 155.066 276.093 155.734C270.625 156.401 266.69 161.402 267.391 166.871L269.525 184.476H259.488C253.953 184.476 249.485 188.944 249.485 194.48C249.485 200.015 253.953 204.483 259.488 204.483H271.992L279.628 267.135H271.492C268.324 250.697 257.521 240.394 247.051 230.424C239.148 222.888 231.079 215.22 225.144 204.216C225.044 204.049 224.977 203.882 224.877 203.716C219.409 193.379 215.774 180.142 215.774 161.369C215.608 139.33 224.677 118.423 241.149 102.551ZM93.2031 199.879C93.2031 170.036 123.679 169.202 123.98 169.202H152.388C155.422 169.202 158.023 169.202 158.023 176.504V593.769C158.023 598.871 153.689 603.172 148.587 603.172H140.284C121.945 603.172 105.34 610.541 93.2031 622.478V199.879ZM818.762 699.097C818.762 711.001 815.961 717.07 800.723 717.07H140.285C114.31 717.07 93.2039 696.03 93.2039 670.155C93.2039 644.28 114.311 623.241 140.285 623.241H148.588C164.826 623.241 178.03 610.036 178.03 593.832V218.752H210.206C217.142 229.789 225.511 237.791 233.08 244.96C245.317 256.597 252.22 263.832 252.22 277.169V311.313C252.22 326.685 264.757 339.189 280.161 339.189H291.798V485.803C291.798 531.35 332.511 589.165 378.294 589.165H663.08C663.413 589.165 663.747 589.132 664.08 589.132C664.28 589.098 664.447 589.065 664.647 589.065C664.78 589.032 664.914 589.032 665.047 588.998C665.28 588.965 665.514 588.898 665.747 588.832C665.814 588.798 665.914 588.798 665.981 588.765C666.247 588.698 666.481 588.598 666.714 588.498C666.781 588.465 666.814 588.465 666.881 588.431L666.914 588.398C666.948 588.398 666.981 588.365 667.014 588.365L738.103 559.255C738.17 559.222 738.203 559.189 738.27 559.155C738.536 559.055 738.803 558.922 739.07 558.755C739.17 558.688 739.27 558.655 739.403 558.588C739.67 558.422 739.937 558.255 740.204 558.055C740.27 557.988 740.37 557.955 740.437 557.888C740.737 557.655 741.037 557.388 741.304 557.121C741.337 557.088 741.337 557.088 741.371 557.055C741.637 556.788 741.904 556.488 742.171 556.154L742.237 556.088L818.761 459.588L818.762 699.097ZM900.854 323.949L732.704 536.017L689.223 501.74L857.339 289.706C866.809 277.736 884.281 275.702 896.285 285.172C902.053 289.74 905.721 296.275 906.588 303.644C907.455 310.98 905.422 318.214 900.854 323.949Z" fill="#328EFF"/>
<path d="M378.36 360.888C368.591 364.589 366.556 370.892 366.556 375.526V409.537C366.556 414.205 368.59 420.54 378.393 424.242L393.031 429.743C394.865 435.345 397.165 440.88 399.866 446.215L393.498 460.387C389.063 469.89 392.164 475.858 395.498 479.192L419.572 503.2C422.907 506.534 428.875 509.568 438.245 505.234L452.583 498.798C457.951 501.499 463.486 503.767 469.121 505.634L474.623 520.271C478.324 530.007 484.659 532.042 489.328 532.042H523.438C528.073 532.042 534.375 530.008 538.076 520.271L543.611 505.667C549.246 503.833 554.781 501.532 560.149 498.832L574.421 505.234C584.424 509.902 590.492 505.934 593.126 503.233L617.334 479.126C620.568 475.825 623.536 469.923 619.301 460.486L612.832 446.248C615.5 440.98 617.801 435.479 619.668 429.777L634.406 424.241C644.076 420.507 646.11 414.205 646.11 409.57V375.559C646.11 370.958 644.076 364.656 634.339 360.921L619.668 355.386C617.767 349.685 615.5 344.183 612.832 338.915L619.268 324.71C623.602 315.24 620.535 309.305 617.234 306.004L593.093 281.93C589.792 278.629 583.857 275.628 574.421 279.896L560.116 286.331C554.848 283.664 549.313 281.363 543.578 279.496L538.009 264.791C534.275 255.155 528.006 253.121 523.372 253.121H489.261C484.626 253.121 478.325 255.155 474.556 264.858L469.054 279.462C463.319 281.329 457.784 283.63 452.516 286.297L438.178 279.829C428.775 275.661 422.873 278.595 419.506 281.896L395.465 305.937C392.664 308.704 388.763 314.773 393.431 324.709L399.833 338.914C397.132 344.249 394.831 349.783 392.997 355.386L378.36 360.888ZM404.701 372.325C407.669 371.191 409.936 368.724 410.803 365.656C412.87 358.254 415.871 351.019 419.706 344.116C421.24 341.349 421.407 338.015 420.106 335.114L412.17 317.508L431.143 298.535L448.815 306.504C451.716 307.805 455.051 307.671 457.818 306.104C464.52 302.336 471.789 299.335 479.425 297.168C482.492 296.301 484.926 294.033 486.06 291.066L492.862 273.027H519.77L526.605 291.066C527.739 294.034 530.173 296.268 533.241 297.134C540.91 299.302 548.179 302.303 554.847 306.071C557.615 307.638 560.982 307.771 563.85 306.471L581.489 298.502L600.495 317.441L592.526 335.014C591.192 337.915 591.359 341.282 592.926 344.05C596.694 350.719 599.695 357.954 601.896 365.59C602.763 368.624 605.03 371.091 607.997 372.192L626.103 379.027V405.802L608.031 412.571C605.063 413.671 602.796 416.138 601.929 419.206C599.762 426.842 596.727 434.077 592.959 440.746C591.392 443.513 591.225 446.881 592.559 449.782L600.528 467.387L581.522 486.293L563.85 478.357C560.982 477.057 557.648 477.223 554.88 478.757C547.978 482.592 540.709 485.593 533.274 487.66C530.206 488.527 527.739 490.761 526.605 493.762L519.737 511.868H492.862L486.06 493.795C484.926 490.794 482.459 488.527 479.391 487.694C471.955 485.626 464.686 482.625 457.785 478.79C455.017 477.257 451.716 477.123 448.815 478.39L431.11 486.326L412.137 467.387L420.073 449.781C421.373 446.88 421.24 443.546 419.673 440.778C415.838 433.909 412.837 426.641 410.769 419.238C409.903 416.171 407.635 413.67 404.634 412.57L386.529 405.768V379.026L404.701 372.325Z" fill="#328EFF"/>
<path d="M506.366 451.618C539.009 451.618 565.584 425.142 565.584 392.566C565.584 359.989 539.009 333.48 506.366 333.48C473.756 333.48 447.214 359.989 447.214 392.566C447.214 425.109 473.756 451.618 506.366 451.618ZM506.366 353.488C527.972 353.488 545.579 371.027 545.579 392.567C545.579 414.106 528.006 431.612 506.366 431.612C484.76 431.612 467.221 414.106 467.221 392.567C467.221 371.027 484.76 353.488 506.366 353.488Z" fill="#328EFF"/>
<path d="M681.055 315.547H766.944C772.479 315.547 776.947 311.079 776.947 305.544C776.947 300.009 772.479 295.541 766.944 295.541H681.055C675.52 295.541 671.051 300.009 671.051 305.544C671.051 311.046 675.519 315.547 681.055 315.547Z" fill="#328EFF"/>
<path d="M681.055 356.153H710.898C716.433 356.153 720.901 351.685 720.901 346.15C720.901 340.615 716.433 336.146 710.898 336.146H681.055C675.52 336.146 671.052 340.615 671.052 346.15C671.052 351.651 675.52 356.153 681.055 356.153Z" fill="#328EFF"/>
<path d="M681.056 274.864H766.945C772.48 274.864 776.948 270.396 776.948 264.861C776.948 259.326 772.48 254.857 766.945 254.857H681.056C675.52 254.857 671.052 259.326 671.052 264.861C671.052 270.396 675.52 274.864 681.056 274.864Z" fill="#328EFF"/>
<path d="M698.528 629.807C692.993 629.807 688.525 634.275 688.525 639.81C688.525 645.346 692.993 649.814 698.528 649.814L784.417 649.814C789.952 649.814 794.421 645.346 794.421 639.81C794.421 634.275 789.953 629.807 784.417 629.807H698.528Z" fill="#328EFF"/>
<path d="M728.404 670.456H698.494C692.959 670.456 688.491 674.924 688.491 680.46C688.491 685.995 692.959 690.463 698.494 690.463H728.404C733.939 690.463 738.407 685.995 738.407 680.46C738.407 674.925 733.906 670.456 728.404 670.456Z" fill="#328EFF"/>
<path d="M269.894 615.204H245.92C229.649 615.204 216.411 628.408 216.411 644.646C216.411 660.884 229.649 674.089 245.92 674.089H269.894C286.166 674.089 299.403 660.884 299.403 644.646C299.403 628.408 286.166 615.204 269.894 615.204ZM269.894 654.083H245.92C240.685 654.083 236.417 649.848 236.417 644.646C236.417 639.444 240.685 635.21 245.92 635.21H269.894C275.129 635.21 279.397 639.444 279.397 644.646C279.397 649.848 275.129 654.083 269.894 654.083Z" fill="#328EFF"/>
<path d="M383.867 615.203H359.893C343.621 615.203 330.384 628.408 330.384 644.646C330.384 660.884 343.621 674.088 359.893 674.088H383.867C400.138 674.088 413.376 660.884 413.376 644.646C413.376 628.408 400.138 615.203 383.867 615.203ZM383.867 654.082H359.893C354.658 654.082 350.39 649.848 350.39 644.646C350.39 639.444 354.658 635.209 359.893 635.209H383.867C389.102 635.209 393.37 639.444 393.37 644.646C393.37 649.848 389.102 654.082 383.867 654.082Z" fill="#328EFF"/>
<path d="M497.83 615.202H473.856C457.585 615.202 444.347 628.406 444.347 644.644C444.347 660.882 457.585 674.087 473.856 674.087H497.83C514.101 674.087 527.339 660.882 527.339 644.644C527.339 628.406 514.101 615.202 497.83 615.202ZM497.83 654.081H473.856C468.621 654.081 464.353 649.846 464.353 644.644C464.353 639.442 468.621 635.208 473.856 635.208H497.83C503.065 635.208 507.333 639.442 507.333 644.644C507.333 649.846 503.065 654.081 497.83 654.081Z" fill="#328EFF"/>
</svg>
