<svg width="500" height="329" viewBox="0 0 500 329" fill="none" xmlns="http://www.w3.org/2000/svg">
<path fill-rule="evenodd" clip-rule="evenodd" d="M322.394 67.2745C336.096 94.0176 353.29 127.579 353.29 164.019C353.29 200.459 336.096 234.02 322.394 260.763C303.253 298.126 290.929 322.18 341.839 322.18C429.189 322.18 500 251.369 500 164.019C500 76.669 429.189 5.85785 341.839 5.85785C290.929 5.85785 303.253 29.9117 322.394 67.2745Z" fill="white"/>
<path fill-rule="evenodd" clip-rule="evenodd" d="M164.019 0C254.471 0 328.038 73.5675 328.038 164.019C328.038 254.47 254.471 328.038 164.019 328.038C73.5678 328.038 0.000244141 254.47 0.000244141 164.019C0.000244141 73.5675 73.5678 0 164.019 0ZM240.609 282.379C218.54 296.709 192.234 305.039 164.019 305.039C86.2651 305.039 22.9987 241.773 22.9987 164.019C22.9987 86.2649 86.2651 22.9985 164.019 22.9985C192.576 22.9985 219.179 31.5324 241.411 46.1838C209.014 75.3538 188.576 117.63 188.523 164.579C188.47 211.271 208.595 253.302 240.609 282.379Z" fill="white"/>
</svg>
