<svg id="svg" version="1.1" xmlns="http://www.w3.org/2000/svg" xmlns:xlink="http://www.w3.org/1999/xlink" width="400" height="400" viewBox="0, 0, 400,400"><g id="svgg"><path id="path0" d="M0.039 6.738 C 0.067 11.563,0.177 13.060,0.424 12.010 C 1.659 6.772,6.290 1.885,11.301 0.534 C 12.915 0.099,12.461 0.050,6.543 0.026 L 0.000 0.000 0.039 6.738 M388.699 0.534 C 393.710 1.885,398.341 6.772,399.576 12.010 C 399.823 13.060,399.933 11.563,399.961 6.738 L 400.000 0.000 393.457 0.026 C 387.539 0.050,387.085 0.099,388.699 0.534 M219.531 198.442 L 219.531 294.540 235.059 294.438 L 250.586 294.336 251.245 288.164 C 251.607 284.770,251.959 281.660,252.026 281.255 C 252.120 280.689,252.665 281.136,254.368 283.178 C 269.833 301.723,300.954 301.966,318.427 283.678 C 340.682 260.383,342.213 200.807,321.256 173.616 C 305.355 152.987,272.636 150.663,255.900 168.975 L 253.906 171.157 253.906 136.750 L 253.906 102.344 236.719 102.344 L 219.531 102.344 219.531 198.442 M125.781 110.197 C 90.014 113.316,67.890 135.024,69.992 164.938 C 71.683 189.003,88.599 204.596,127.734 218.163 C 153.496 227.094,160.446 232.519,161.517 244.531 C 162.812 259.046,153.069 266.994,133.984 266.991 C 112.632 266.987,101.895 258.519,100.543 240.614 L 100.279 237.109 82.366 237.109 L 64.453 237.109 64.453 239.561 C 64.453 272.932,94.159 297.071,135.156 297.016 C 174.836 296.963,199.002 276.495,197.547 244.175 C 196.328 217.086,180.249 201.045,140.902 187.664 C 113.858 178.467,106.286 172.764,105.925 161.314 C 105.488 147.488,117.645 138.804,135.742 140.015 C 151.437 141.066,160.466 149.226,161.593 163.379 L 161.835 166.406 179.804 166.406 L 197.774 166.406 197.513 162.432 C 195.287 128.459,165.457 106.736,125.781 110.197 M282.110 186.757 C 294.361 189.293,300.334 200.620,301.041 222.656 C 301.951 251.045,295.941 264.835,281.520 267.448 C 270.578 269.431,259.737 264.722,255.164 256.000 L 253.906 253.602 253.906 226.953 L 253.906 200.305 255.176 197.908 C 258.238 192.129,263.957 188.108,271.289 186.581 C 272.960 186.234,280.145 186.350,282.110 186.757 M0.039 393.262 L 0.000 400.000 6.543 399.974 C 12.461 399.950,12.915 399.901,11.301 399.466 C 6.290 398.115,1.659 393.228,0.424 387.990 C 0.177 386.940,0.067 388.437,0.039 393.262 M399.609 387.598 C 399.608 391.704,393.716 398.113,388.699 399.466 C 387.085 399.901,387.539 399.950,393.457 399.974 L 400.000 400.000 400.000 393.359 C 400.000 389.707,399.912 386.719,399.805 386.719 C 399.697 386.719,399.609 387.114,399.609 387.598 " stroke="none" fill="#fbfbfc" fill-rule="evenodd"></path><path id="path1" d="M11.301 0.533 C 7.144 1.656,3.536 4.863,1.431 9.305 L 0.195 11.914 0.195 200.000 L 0.195 388.086 1.439 390.712 C 3.098 394.212,5.729 396.960,8.935 398.539 L 11.507 399.805 200.000 399.805 L 388.493 399.805 391.065 398.539 C 394.271 396.960,396.902 394.212,398.561 390.712 L 399.805 388.086 399.805 200.000 L 399.805 11.914 398.561 9.288 C 396.902 5.788,394.271 3.040,391.065 1.461 L 388.493 0.195 200.789 0.123 C 52.880 0.066,12.707 0.153,11.301 0.533 M253.906 136.750 L 253.906 171.157 255.900 168.975 C 272.636 150.663,305.355 152.987,321.256 173.616 C 340.000 197.935,341.112 251.346,323.422 277.563 C 307.442 301.243,271.847 304.138,254.368 283.178 C 252.665 281.136,252.120 280.689,252.026 281.255 C 251.959 281.660,251.607 284.770,251.245 288.164 L 250.586 294.336 235.059 294.438 L 219.531 294.540 219.531 198.442 L 219.531 102.344 236.719 102.344 L 253.906 102.344 253.906 136.750 M140.823 110.172 C 173.502 112.825,195.597 133.194,197.513 162.432 L 197.774 166.406 179.804 166.406 L 161.835 166.406 161.593 163.379 C 160.466 149.226,151.437 141.066,135.742 140.015 C 117.645 138.804,105.488 147.488,105.925 161.314 C 106.286 172.764,113.858 178.467,140.902 187.664 C 180.249 201.045,196.328 217.086,197.547 244.175 C 199.002 276.495,174.836 296.963,135.156 297.016 C 94.159 297.071,64.453 272.932,64.453 239.561 L 64.453 237.109 82.366 237.109 L 100.279 237.109 100.543 240.614 C 101.895 258.519,112.632 266.987,133.984 266.991 C 153.069 266.994,162.812 259.046,161.517 244.531 C 160.446 232.519,153.496 227.094,127.734 218.163 C 84.670 203.234,68.018 185.515,70.000 156.725 C 72.041 127.059,102.470 107.057,140.823 110.172 M271.289 186.581 C 263.957 188.108,258.238 192.129,255.176 197.908 L 253.906 200.305 253.906 226.953 L 253.906 253.602 255.164 256.000 C 263.076 271.089,287.113 272.095,295.650 257.695 C 302.915 245.441,303.140 211.245,296.045 197.608 C 291.603 189.071,281.323 184.492,271.289 186.581 " stroke="none" fill="#4c8cfb" fill-rule="evenodd"></path></g></svg>