<svg width="500" height="500" viewBox="0 0 500 500" fill="none" xmlns="http://www.w3.org/2000/svg">
<rect width="500" height="500" rx="250" fill="#DAEDFC"/>
<path d="M209.061 75C209.194 75 209.325 75.0047 209.456 75.0127V75C267.489 75 314.535 122.046 314.535 180.079C314.535 238.113 267.489 285.158 209.456 285.158V285.144C209.325 285.152 209.194 285.158 209.061 285.158H146.322C142.378 285.158 139.397 281.585 140.104 277.704L176.118 80.1865C176.666 77.1828 179.282 75.0001 182.336 75H209.061Z" fill="#4DACF5"/>
<path d="M256.929 214.842V214.849C314.417 215.484 360.823 262.283 360.823 319.921C360.823 377.559 314.417 424.357 256.929 424.992V425H153.107C149.162 425 146.182 421.426 146.889 417.546L182.903 220.029C183.45 217.025 186.067 214.842 189.121 214.842H256.929Z" fill="#0852F2" fill-opacity="0.75"/>
</svg>
