<?xml version="1.0" standalone="no"?>
<!DOCTYPE svg PUBLIC "-//W3C//DTD SVG 20010904//EN"
 "http://www.w3.org/TR/2001/REC-SVG-20010904/DTD/svg10.dtd">
<svg version="1.0" xmlns="http://www.w3.org/2000/svg"
 width="1024.000000pt" height="1024.000000pt" viewBox="0 0 1024.000000 1024.000000"
 preserveAspectRatio="xMidYMid meet">
<metadata>
Created by potrace 1.15, written by Peter Selinger 2001-2017
</metadata>
<g transform="translate(0.000000,1024.000000) scale(0.100000,-0.100000)"
fill="#000000" stroke="none">
<path d="M2280 8105 c-716 -88 -1287 -419 -1580 -917 -102 -176 -174 -389
-200 -601 -20 -158 -8 -473 24 -623 71 -335 217 -605 456 -845 187 -188 367
-312 614 -422 226 -102 434 -161 756 -216 429 -74 708 -185 852 -339 111 -119
130 -243 58 -388 -100 -203 -405 -318 -758 -285 -398 37 -750 195 -1021 457
l-106 102 -465 -436 c-256 -240 -466 -441 -468 -448 -7 -26 216 -274 360 -401
391 -346 802 -551 1283 -639 137 -25 503 -30 680 -10 894 104 1611 558 1886
1195 92 213 122 382 123 671 0 352 -45 577 -169 835 -130 271 -355 500 -653
666 -277 154 -595 259 -1090 360 -418 85 -644 177 -782 319 -125 129 -144 297
-53 472 108 207 381 321 693 288 330 -34 633 -179 887 -423 39 -38 55 -48 65
-40 7 6 222 171 478 367 256 197 469 363 474 371 12 16 -59 101 -199 240 -401
400 -865 623 -1435 689 -164 19 -557 20 -710 1z"/>
<path d="M5710 5094 l0 -2946 1198 5 c818 3 1229 8 1297 16 516 60 823 185
1076 440 115 116 181 208 244 346 71 152 115 309 140 504 19 140 19 447 0 581
-63 442 -280 813 -598 1024 -113 74 -179 105 -344 162 -79 27 -143 52 -143 55
0 3 53 34 118 69 167 90 249 149 346 250 167 174 268 372 326 645 28 128 39
446 20 592 -81 652 -537 1088 -1241 1188 -87 12 -297 15 -1271 15 l-1168 0 0
-2946z m2502 2718 c544 -124 875 -456 963 -967 18 -105 21 -354 5 -465 -41
-284 -141 -493 -323 -667 -175 -168 -399 -269 -707 -319 -93 -15 -224 -18
-1167 -21 l-1063 -4 0 1236 0 1236 1098 -4 c1091 -3 1098 -3 1194 -25z m-174
-2652 c331 -18 559 -72 776 -183 332 -169 535 -447 615 -842 77 -382 36 -803
-106 -1091 -185 -376 -535 -590 -1093 -665 -58 -8 -434 -13 -1197 -16 l-1113
-4 0 1405 0 1406 973 0 c534 0 1050 -5 1145 -10z"/>
</g>
</svg>
