<?xml version="1.0" encoding="utf-8"?>
<!-- Generator: Adobe Illustrator 16.0.0, SVG Export Plug-In . SVG Version: 6.00 Build 0)  -->
<!DOCTYPE svg PUBLIC "-//W3C//DTD SVG 1.1//EN" "http://www.w3.org/Graphics/SVG/1.1/DTD/svg11.dtd">
<svg version="1.1" id="Layer_1" xmlns="http://www.w3.org/2000/svg" xmlns:xlink="http://www.w3.org/1999/xlink" x="0px" y="0px"
	 width="699px" height="500px" viewBox="0 0 699 500" enable-background="new 0 0 699 500" xml:space="preserve">
<path fill="#5399c6" d="M50.262,322.58C-21.413,243.914-15.75,122.038,62.91,50.361c78.666-71.673,200.538-66.01,272.215,12.649
	L50.262,322.58z"/>
<path fill="#5399c6" d="M284.865,177.526c71.674,78.666,66.01,200.541-12.648,272.214C193.549,521.413,71.676,515.752,0,437.091
	L284.865,177.526z"/>
<path fill="#5399c6" d="M382.334,346.356c0,84.854,70.889,153.644,158.332,153.644C628.112,500,699,431.211,699,346.356"/>
<path fill="#5399c6" d="M382.334,307.639c0-84.854,70.889-153.643,158.332-153.643c87.446,0,158.334,68.789,158.334,153.643"/>
<path fill="#5399c6" d="M381.334,307.639c45.969,0,83.234-68.844,83.234-153.767c0-84.926-37.266-153.77-83.234-153.77"/>
</svg>
